HIERARCHY
ROOT SpineBase
{
  OFFSET 0.000000 0.000000 0.000000
  CHANNELS 6 Xposition Yposition Zposition Zrotation Xrotation Yrotation
  JOINT SpineMid
  {
    OFFSET 0.000000 30.903134 0.000000
    CHANNELS 3 Zrotation Xrotation Yrotation
    JOINT SpineShoulder
    {
      OFFSET -0.037693 22.880140 -0.797669
      CHANNELS 3 Zrotation Xrotation Yrotation
      JOINT Neck
      {
        OFFSET -0.001104 7.564108 -0.587602
        CHANNELS 3 Zrotation Xrotation Yrotation
        JOINT Head
        {
          OFFSET -0.566038 12.776677 -0.796852
          CHANNELS 3 Zrotation Xrotation Yrotation
          End Site
          {
            OFFSET 0 0 0
          }
        }
      }
      JOINT ShoulderLeft
      {
        OFFSET -17.462416 -1.598679 0.846955
        CHANNELS 3 Zrotation Xrotation Yrotation
        JOINT ElbowLeft
        {
          OFFSET -5.707229 -28.285544 0.367380
          CHANNELS 3 Zrotation Xrotation Yrotation
          JOINT WristLeft
          {
            OFFSET -0.759076 -23.509710 -6.364752
            CHANNELS 3 Zrotation Xrotation Yrotation
            JOINT HandLeft
            {
              OFFSET 1.146483 -1.651327 -0.662469
              CHANNELS 3 Zrotation Xrotation Yrotation
              JOINT HandTipLeft
              {
                OFFSET 0.922007 -6.525565 -1.239529
                CHANNELS 3 Zrotation Xrotation Yrotation
                End Site
                {
                  OFFSET 0 0 0
                }
              }
              JOINT ThumbLeft
              {
                OFFSET 3.760898 -0.024910 -2.307038
                CHANNELS 3 Zrotation Xrotation Yrotation
                End Site
                {
                  OFFSET 0 0 0
                }
              }
            }
          }
        }
      }
      JOINT ShoulderRight
      {
        OFFSET 16.439035 -2.818696 -1.764929
        CHANNELS 3 Zrotation Xrotation Yrotation
        JOINT ElbowRight
        {
          OFFSET 5.378783 -26.200989 -0.625530
          CHANNELS 3 Zrotation Xrotation Yrotation
          JOINT WristRight
          {
            OFFSET 0.338735 -23.508373 -6.095478
            CHANNELS 3 Zrotation Xrotation Yrotation
            JOINT HandRight
            {
              OFFSET -1.641152 -2.512810 -1.421385
              CHANNELS 3 Zrotation Xrotation Yrotation
              JOINT HandTipRight
              {
                OFFSET -0.252828 -5.337046 -1.127058
                CHANNELS 3 Zrotation Xrotation Yrotation
                End Site
                {
                  OFFSET 0 0 0
                }
              }
              JOINT ThumbRight
              {
                OFFSET -3.741508 0.133787 -0.739532
                CHANNELS 3 Zrotation Xrotation Yrotation
                End Site
                {
                  OFFSET 0 0 0
                }
              }
            }
          }
        }
      }
    }
  }
  JOINT HipLeft
  {
    OFFSET -7.352242 0.855068 -3.093434
    CHANNELS 3 Zrotation Xrotation Yrotation
    JOINT KneeLeft
    {
      OFFSET -8.892117 -29.985237 0.211573
      CHANNELS 3 Zrotation Xrotation Yrotation
      JOINT AnkleLeft
      {
        OFFSET -2.416958 -30.930100 5.044811
        CHANNELS 3 Zrotation Xrotation Yrotation
        JOINT FootLeft
        {
          OFFSET 0.701551 -3.762327 -11.693503
          CHANNELS 3 Zrotation Xrotation Yrotation
          End Site
          {
            OFFSET 0 0 0
          }
        }
      }
    }
  }
  JOINT HipRight
  {
    OFFSET 7.656121 0.570744 -3.842127
    CHANNELS 3 Zrotation Xrotation Yrotation
    JOINT KneeRight
    {
      OFFSET 1.201725 -32.003919 5.837195
      CHANNELS 3 Zrotation Xrotation Yrotation
      JOINT AnkleRight
      {
        OFFSET -2.338887 -30.497251 4.054544
        CHANNELS 3 Zrotation Xrotation Yrotation
        JOINT FootRight
        {
          OFFSET -0.549405 -3.514234 -13.107959
          CHANNELS 3 Zrotation Xrotation Yrotation
          End Site
          {
            OFFSET 0 0 0
          }
        }
      }
    }
  }
}
MOTION
Frames: 13
Frame Time: 0.033333
-15.321795 74.412493 354.714496 -0.000000 0.000000 2.855836 -0.000000 0.000000 -2.855836 -0.000000 0.000000 0.000000 -0.000000 0.000000 0.000000 0.000000 0.000000 0.000000 -0.000000 0.000000 0.000000 -0.000000 0.000000 0.000000 -0.000000 0.000000 0.000000 -0.000000 0.000000 0.000000 0.000000 0.000000 0.000000 0.000000 0.000000 0.000000 -0.000000 0.000000 0.000000 -0.000000 0.000000 0.000000 -0.000000 0.000000 0.000000 -0.000000 0.000000 0.000000 0.000000 0.000000 0.000000 0.000000 0.000000 0.000000 -0.000000 0.000000 -2.855836 -0.000000 0.000000 0.000000 -0.000000 0.000000 0.000000 0.000000 0.000000 0.000000 -0.000000 0.000000 -2.855836 -0.000000 0.000000 0.000000 -0.000000 0.000000 0.000000 0.000000 0.000000 0.000000
-15.192376 74.459062 354.712099 0.188055 0.003741 2.914762 -0.188002 0.005826 -2.914759 -0.000000 0.000000 0.000000 -0.000000 0.000000 0.000000 0.000000 0.000000 0.000000 -0.000000 0.000000 0.000000 -0.000000 0.000000 0.000000 4.026466 1.012069 -0.923060 -4.010346 -1.074262 0.849870 0.000000 0.000000 0.000000 0.000000 0.000000 0.000000 -0.000000 0.000000 0.000000 -0.000000 0.000000 0.000000 2.479211 -1.033830 -0.718817 -2.988212 2.203296 0.820762 0.000000 0.000000 0.000000 0.000000 0.000000 0.000000 -0.188002 0.005826 -2.914759 -0.000000 0.000000 0.000000 -1.227810 2.462406 4.038391 0.000000 0.000000 0.000000 -0.188002 0.005826 -2.914759 -0.000000 0.000000 0.000000 -0.000000 0.000000 0.000000 0.000000 0.000000 0.000000
-15.064600 74.492662 354.710439 0.348554 -0.012279 2.929688 -0.347471 0.030077 -2.929559 -0.000000 0.000000 0.000000 -0.000000 0.000000 0.000000 0.000000 0.000000 0.000000 -0.000000 0.000000 0.000000 -0.000000 0.000000 0.000000 7.028223 1.624942 -1.711780 -6.980084 -1.821523 1.500885 0.000000 0.000000 0.000000 0.000000 0.000000 0.000000 -0.000000 0.000000 0.000000 -0.840431 0.299331 0.224299 5.208796 -2.484134 -1.212194 -5.177544 4.334494 1.264064 0.000000 0.000000 0.000000 0.000000 0.000000 0.000000 -0.347471 0.030077 -2.929559 -0.000000 0.000000 0.000000 -2.034824 3.878379 6.452227 0.000000 0.000000 0.000000 -0.347471 0.030077 -2.929559 -0.288113 -0.766357 0.018523 0.288387 0.766254 -0.022378 0.000000 0.000000 0.000000
-14.938469 74.513293 354.709514 0.481656 -0.048076 2.900530 -0.478607 0.072385 -2.900026 -0.000000 0.000000 0.000000 -0.000000 0.000000 0.000000 0.000000 0.000000 0.000000 -0.000000 0.000000 0.000000 -0.000000 0.000000 0.000000 8.395291 1.729278 -2.175919 -7.979086 -2.742161 1.751378 0.000000 0.000000 0.000000 0.000000 0.000000 0.000000 -0.000000 0.000000 0.000000 -1.055958 0.438778 0.283928 6.669131 -3.813424 -1.111166 -6.439119 6.391622 1.262011 0.000000 0.000000 0.000000 0.000000 0.000000 0.000000 -1.271073 -0.519782 -2.721578 0.763500 0.629079 -0.185733 -2.453089 4.567006 7.645601 0.000000 0.000000 0.000000 -0.478607 0.072385 -2.900026 -0.397475 -1.090692 0.026981 0.398060 1.090479 -0.034553 0.000000 0.000000 0.000000
-14.813982 74.520957 354.709326 0.587471 -0.103705 2.827166 -0.581642 0.132549 -2.825962 -0.000000 0.000000 0.000000 -0.000000 0.000000 0.000000 0.000000 0.000000 0.000000 -0.000000 0.000000 0.000000 -0.000000 0.000000 0.000000 7.769589 1.288112 -2.200895 -7.222060 -2.291615 1.830796 0.000000 0.000000 0.000000 0.000000 0.000000 0.000000 -0.000000 0.000000 0.000000 -1.134971 0.572077 0.307850 7.317465 -5.138818 -0.557214 -6.679419 8.349026 0.757240 0.000000 0.000000 0.000000 0.000000 0.000000 0.000000 -1.564945 -0.452047 -2.648346 0.955295 0.629340 -0.185605 -2.510224 4.670591 7.805852 0.000000 0.000000 0.000000 -1.082267 0.791548 -2.895341 0.050495 -2.011032 0.106396 0.485477 1.377222 -0.047009 0.000000 0.000000 0.000000
-14.691140 74.515652 354.709874 0.666051 -0.179263 2.709436 -0.656837 0.210535 -2.707187 -0.000000 0.000000 0.000000 -0.761728 -0.582516 -0.077186 0.000000 0.000000 0.000000 -0.000000 0.000000 0.000000 -0.000000 0.000000 0.000000 5.192058 0.335453 -1.807481 -4.518173 -1.119127 1.566538 0.000000 0.000000 0.000000 0.000000 0.000000 0.000000 -0.000000 0.000000 0.000000 -1.077402 0.699415 0.295593 7.155280 -6.435024 0.409859 -5.844446 10.149882 -0.293560 0.000000 0.000000 0.000000 0.000000 0.000000 0.000000 -1.796239 -0.266746 -2.558711 0.412108 0.062539 -0.228738 -1.514942 4.674405 7.053525 0.000000 0.000000 0.000000 -1.267649 1.110589 -2.786628 0.106639 -2.498133 0.127065 0.551047 1.627573 -0.059530 0.000000 0.000000 0.000000
-14.537499 74.506366 354.735276 0.727620 -0.276618 2.528582 -0.714718 0.308427 -2.524902 -0.000000 0.000000 0.000000 -1.320730 -1.463691 -0.164048 0.000000 0.000000 0.000000 -0.000000 0.000000 0.000000 -0.000000 0.000000 0.000000 0.938744 -2.017341 -1.763109 0.544131 1.741567 1.413989 0.000000 0.000000 0.000000 0.000000 0.000000 0.000000 -0.000000 0.000000 0.000000 -1.100616 0.942891 0.307416 8.537863 -10.167814 2.449553 -5.146523 12.661370 -2.352449 0.000000 0.000000 0.000000 0.000000 0.000000 0.000000 -2.080573 -0.113613 -2.389673 0.379246 -0.197634 -0.240568 -0.268342 5.171123 4.301209 0.000000 0.000000 0.000000 -1.453507 1.594096 -2.610759 0.154628 -3.183557 0.144245 0.647207 1.931191 -0.073179 0.000000 0.000000 0.000000
-14.407850 74.469730 354.749240 0.750993 -0.404878 2.283330 -0.734287 0.434443 -2.277893 -0.000000 0.000000 0.000000 -2.613673 -2.464213 -0.328339 0.000000 0.000000 0.000000 -0.000000 0.000000 0.000000 0.325360 0.786311 -0.115502 -3.862412 -3.830772 -0.746354 3.503438 3.082379 0.620455 0.000000 0.000000 0.000000 0.000000 0.000000 0.000000 -0.000000 0.000000 0.000000 -0.585452 0.985995 0.170680 4.133112 -9.689491 4.107066 1.497257 11.965230 -5.544896 0.000000 0.000000 0.000000 0.000000 0.000000 0.000000 -2.268798 0.254174 -2.208212 0.001039 -0.635681 -0.248642 0.909500 3.125635 2.358233 0.000000 0.000000 0.000000 -1.560172 2.075338 -2.362098 0.222337 -3.571143 0.145481 0.675913 1.963953 -0.072555 0.000000 0.000000 0.000000
-14.271632 74.415208 354.747893 0.752394 -0.582028 2.093661 -0.730670 0.609077 -2.085955 -0.000000 0.000000 0.000000 -4.296710 -3.309088 -0.538834 0.000000 0.000000 0.000000 -0.000000 0.000000 0.000000 0.590588 0.951745 -0.195120 -9.167174 -5.149247 0.290863 9.259105 5.290519 -0.871141 0.000000 0.000000 0.000000 0.000000 0.000000 0.000000 -0.000000 0.000000 0.000000 0.136241 1.002674 -0.022020 -0.214332 -8.215191 4.946256 6.661490 10.897495 -7.272612 0.000000 0.000000 0.000000 0.000000 0.000000 0.000000 -2.395732 0.896897 -2.142964 -0.015054 -1.516477 -0.118057 2.294723 -4.013565 -3.135522 0.000000 0.000000 0.000000 -1.711034 2.526452 -2.180211 0.413894 -3.889276 0.174672 0.645376 2.008772 -0.079805 0.000000 0.000000 0.000000
-14.171981 74.349271 354.725844 0.778721 -0.692508 1.870943 -0.755757 0.717500 -1.861505 -0.000000 0.000000 0.000000 -6.993433 -4.983193 -0.962275 0.000000 0.000000 0.000000 -0.804979 0.162211 -0.041987 1.566812 0.843065 -0.198598 -12.526749 -6.079235 0.803132 13.106994 6.471938 -1.897208 0.000000 0.000000 0.000000 0.000000 0.000000 0.000000 -0.000000 0.000000 0.000000 0.802064 0.919094 -0.200722 -4.347950 -6.874752 5.894115 10.732497 9.440240 -8.492715 0.000000 0.000000 0.000000 0.000000 0.000000 0.000000 -2.387022 1.852814 -2.156223 -0.038480 -3.006572 0.156203 3.336716 -7.038647 -8.577393 0.000000 0.000000 0.000000 -1.812843 2.795123 -1.957714 0.546348 -4.117035 0.198565 0.588921 2.074990 -0.091778 0.000000 0.000000 0.000000
-14.129575 74.266724 354.670926 0.738320 -0.866980 1.658231 -0.510967 0.082339 -1.642301 -0.039143 0.008125 0.008054 -10.240380 -5.151070 -1.290379 0.000000 0.000000 0.000000 -1.260808 0.671864 0.010838 2.085324 1.396050 -0.338440 -16.910196 -8.629839 0.293424 19.840106 6.212835 -3.583079 0.000000 0.000000 0.000000 0.000000 0.000000 0.000000 -0.185788 0.791353 -0.013041 1.276123 0.787585 -0.327684 -7.818923 -6.164935 7.036954 12.485329 8.403214 -9.207511 0.000000 0.000000 0.000000 0.000000 0.000000 0.000000 -2.018817 3.121691 -2.260103 0.488789 -4.854591 0.685292 1.727503 -15.820687 -12.009720 0.000000 0.000000 0.000000 -1.843744 3.036092 -1.746689 0.781822 -4.389341 0.255255 0.682415 2.080242 -1.074691 0.000000 0.000000 0.000000
-14.165336 74.198569 354.576006 0.666187 -0.977955 1.395334 -0.366944 -0.138886 -1.377439 0.057024 -0.121707 0.018864 -13.657161 -5.991865 -1.735053 0.000000 0.000000 0.000000 -1.690448 0.903356 0.053260 2.243539 1.727521 -0.362940 -17.598589 -10.050257 -0.757532 21.559393 6.628659 -3.665878 0.000000 0.000000 0.000000 0.000000 0.000000 0.000000 -0.359124 1.247584 -0.023826 1.509802 0.605940 -0.390141 -8.924853 -5.956098 7.499994 11.043495 11.567821 -9.016782 0.000000 0.000000 0.000000 0.000000 0.000000 0.000000 -1.266515 4.411566 -2.367065 1.208719 -7.001700 1.417606 -0.654619 -21.004634 -13.386907 0.000000 0.000000 0.000000 -1.776704 3.129765 -1.480625 0.997332 -4.738689 0.322640 0.570550 2.373773 -1.523298 0.000000 0.000000 0.000000
-14.136185 74.166684 354.498790 0.665522 -1.213937 1.085909 -0.216825 -0.334802 -1.061999 0.107241 -0.207144 0.029635 -16.982803 -6.349487 -2.095320 0.000000 0.000000 0.000000 -2.239862 0.936273 0.148879 2.314371 2.101206 -0.383743 -15.752193 -10.730896 -2.114024 18.525720 4.656072 -2.370652 0.000000 0.000000 0.000000 0.000000 0.000000 0.000000 -0.561036 1.760309 -0.034749 1.490612 0.361628 -0.385626 -8.211809 -7.759726 8.501739 11.090155 14.639123 -10.427731 0.000000 0.000000 0.000000 0.000000 0.000000 0.000000 -0.570852 5.724084 -2.411368 2.789494 -8.787465 2.401135 -3.349586 -21.573029 -12.255612 0.000000 0.000000 0.000000 -1.905143 3.416949 -1.177449 1.273812 -5.436771 0.423314 0.575366 2.913849 -2.172790 0.000000 0.000000 0.000000
